<?xml version="1.0" encoding="UTF-8"?>
<svg id="katman_2" data-name="katman 2" xmlns="http://www.w3.org/2000/svg" viewBox="0 0 763.28 621.52">
  <defs>
    <style>
      .cls-1 {
        fill: none;
      }

      .cls-1, .cls-2, .cls-3, .cls-4 {
        stroke-width: 0px;
      }

      .cls-2 {
        fill: #5cbed4;
      }

      .cls-3 {
        fill: #5bbed4;
      }

      .cls-4 {
        fill: #fff;
      }
    </style>
  </defs>
  <g id="katman_1" data-name="katman 1">
    <g>
      <path class="cls-2" d="M484.41,607.43c-4.41,5.04-10.12,9.75-15.5,14.09-34.76-35.92-75.57-75.74-114.36-75.74-24.05,0-41.37,18.31-61.58,31.22-28.04,17.92-66.51,28.02-99.48,14.86-17.73-6.73-34.91-16.65-47.75-32.76,25.95,17.89,64.8,20.3,94.09,8.15,32.38-13.43,65.33-31.27,102.23-31.27,54.39,0,106.08,36.79,142.34,71.44ZM82.42,494.44c36.01,40.99,94.74,27.8,142.82,38.04,6.69,1.43,12.98,3.65,20.16,2.54-5.72-3.62-13.29-4.03-19.89-6.52-37.3-14.05-43.11-53.97-63.53-81.44,26.07,17.33,47.67,41.06,72.05,63.36,16.97,15.52,38.11,22.16,60.03,26.62-5.27,1.93-12.16,1.47-17.83,2.88-39.38,9.77-83.05,25.19-124.95,11.36-27.04-8.92-55.19-30.06-68.85-56.85ZM24.69,399.57c22.46,50.86,78.9,54.84,116.42,86.04,7.14,5.93,14.21,11.39,22.05,15.05l.4-.41c-8.66-7.83-18.03-17.17-24.74-26.92-21.45-31.16-14.31-73.76-30.85-106.79,15.02,17.99,29.12,36.51,37.77,57.11,13.92,33.14,18.65,70.96,49.87,96.14-33.79-11.15-72.77-8.93-103.2-28.86-31.99-20.95-61.63-54.02-67.72-91.36h0ZM.63,296.68c3.25,44.81,50.95,68.74,73.7,105.57,4.86,7.87,9.86,15.99,16.91,22.34-1.1-4.77-5.02-9-7.19-13.68-7.3-15.8-10.6-34.09-8.78-52.9,2.22-22.88,11.75-44.13,8.09-68.2,19.61,42.32,13.28,95.22,24.61,140.98,2.51,10.12,8.67,18.98,12.47,28.57-19.26-14.65-44.51-27.66-65.65-44.33-20.45-16.12-38.2-35.01-47.42-59.59-6.65-17.71-8.38-38.84-6.75-58.77h0ZM1.96,214.13c2.3-10,4.06-20.35,8.41-29.52-8.24,42.27,19.88,72.8,29.48,109.37,3.62,13.78,4.86,28.42,10.43,41.28.52.28.97-.26,1.29-.68-13.87-38.92,6.46-74.88,26.27-105.56,5.21-8.06,7.71-17.45,10.15-26.94,2.14,17.62-1.61,38.01-4.87,56.19-4.2,23.41-12.2,45.34-18.55,67.92-4.19,14.11-3.08,30.03-.93,44.81l-2.02-1.61c-14.75-27.23-43.85-48.5-52.64-78.22-7.02-23.75-11.88-51.19-7.02-77.03h0ZM17.52,168.66c0-31.98,12.45-58.08,31.13-81.9.54-.27.93-.81,1.63-.69-20.57,31.28-1.85,70.77-4.49,106.25l-2.71,36.42c.4.27.4,1.36,1.36.94,1.22-4.06,1.58-8.38,2.29-12.57,4.95-29.36,30.73-49.79,52.59-70.52,5.17-4.9,8.96-10.7,11.4-16.93-1.82,14.62-5.9,29.62-12.46,42.91-16.83,34.07-49.33,61.57-55.18,100.29-2.83-37.11-25.56-64.69-25.56-104.2ZM71.73,60.77c10.34-11.47,21.93-20.4,35.73-23.93-26.79,18.42-25.34,51.35-33.54,78.88-3,10.07-7.41,19.5-9.75,29.9l.68.54c4.46-11.76,12.11-23.07,22.07-32.47,18.85-17.78,47.18-28.54,56.5-54.55-.43,36.14-31.23,63.62-59.37,84.87-12.62,9.53-23.35,22.33-29.89,35.75,1.09-9.99,1.59-18.29.7-28.04-2.89-31.57-4.76-66.97,16.88-90.96h0ZM180.48,0c-19.89,17.45-33.15,39.91-48.43,60.1-12.71,16.79-30.14,27.2-45.13,41.29,8.09-16.79,9.59-36.03,19.87-52.27C124.36,21.33,153.41,10.55,180.48,0Z"/>
      <path class="cls-2" d="M278.87,607.43c4.41,5.04,10.12,9.75,15.5,14.09,34.76-35.92,75.57-75.74,114.36-75.74,24.05,0,41.37,18.31,61.58,31.22,28.04,17.92,66.51,28.02,99.48,14.86,17.73-6.73,34.91-16.65,47.75-32.76-25.95,17.89-64.8,20.3-94.09,8.15-32.38-13.43-65.33-31.27-102.23-31.27-54.39,0-106.08,36.79-142.34,71.44ZM680.86,494.44c-36.01,40.99-94.74,27.8-142.82,38.04-6.69,1.43-12.98,3.65-20.16,2.54,5.72-3.62,13.29-4.03,19.89-6.52,37.3-14.05,43.11-53.97,63.53-81.44-26.07,17.33-47.67,41.06-72.05,63.36-16.97,15.52-38.11,22.16-60.03,26.62,5.27,1.93,12.16,1.47,17.83,2.88,39.38,9.77,83.05,25.19,124.95,11.36,27.04-8.92,55.19-30.06,68.85-56.85ZM738.59,399.57c-22.46,50.86-78.9,54.84-116.42,86.04-7.14,5.93-14.21,11.39-22.05,15.05l-.4-.41c8.66-7.83,18.03-17.17,24.74-26.92,21.45-31.16,14.31-73.76,30.85-106.79-15.02,17.99-29.12,36.51-37.77,57.11-13.92,33.14-18.65,70.96-49.87,96.14,33.79-11.15,72.77-8.93,103.2-28.86,31.99-20.95,61.63-54.02,67.72-91.36h0ZM762.65,296.68c-3.25,44.81-50.95,68.74-73.7,105.57-4.86,7.87-9.86,15.99-16.91,22.34,1.1-4.77,5.02-9,7.19-13.68,7.3-15.8,10.6-34.09,8.78-52.9-2.22-22.88-11.75-44.13-8.09-68.2-19.61,42.32-13.28,95.22-24.61,140.98-2.51,10.12-8.67,18.98-12.47,28.57,19.26-14.65,44.51-27.66,65.65-44.33,20.45-16.12,38.2-35.01,47.42-59.59,6.65-17.71,8.38-38.84,6.75-58.77h0ZM761.32,214.13c-2.3-10-4.06-20.35-8.41-29.52,8.24,42.27-19.88,72.8-29.48,109.37-3.62,13.78-4.86,28.42-10.43,41.28-.52.28-.97-.26-1.29-.68,13.87-38.92-6.46-74.88-26.27-105.56-5.21-8.06-7.71-17.45-10.15-26.94-2.14,17.62,1.61,38.01,4.87,56.19,4.2,23.41,12.2,45.34,18.55,67.92,4.19,14.11,3.08,30.03.93,44.81l2.02-1.61c14.75-27.23,43.85-48.5,52.64-78.22,7.02-23.75,11.88-51.19,7.02-77.03h0ZM745.76,168.66c0-31.98-12.45-58.08-31.13-81.9-.54-.27-.93-.81-1.63-.69,20.57,31.28,1.85,70.77,4.49,106.25l2.71,36.42c-.4.27-.4,1.36-1.36.94-1.22-4.06-1.58-8.38-2.29-12.57-4.95-29.36-30.73-49.79-52.59-70.52-5.17-4.9-8.96-10.7-11.4-16.93,1.82,14.62,5.9,29.62,12.46,42.91,16.83,34.07,49.33,61.57,55.18,100.29,2.83-37.11,25.56-64.69,25.56-104.2ZM691.55,60.77c-10.34-11.47-21.93-20.4-35.73-23.93,26.79,18.42,25.34,51.35,33.54,78.88,3,10.07,7.41,19.5,9.75,29.9l-.68.54c-4.46-11.76-12.11-23.07-22.07-32.47-18.85-17.78-47.18-28.54-56.5-54.55.43,36.14,31.23,63.62,59.37,84.87,12.62,9.53,23.35,22.33,29.89,35.75-1.09-9.99-1.59-18.29-.7-28.04,2.89-31.57,4.76-66.97-16.88-90.96h0ZM582.8,0c19.89,17.45,33.15,39.91,48.43,60.1,12.71,16.79,30.14,27.2,45.13,41.29-8.09-16.79-9.59-36.03-19.87-52.27-17.58-27.78-46.62-38.56-73.7-49.11Z"/>
    </g>
    <g>
      <path class="cls-2" d="M439.61,99.6l-1.54,3.5-2.73,6.19-6.41-2.17-14.31-4.85c-1.73,1.95-3.61,3.74-5.64,5.35l4.22,14.54,1.88,6.5-6.31,2.45-9.54,3.71-6.31,2.44-3-6.07-6.71-13.61c-1.04.07-2.08.11-3.12.11-1.55,0-3.1-.08-4.64-.24l-7.29,13.26-3.27,5.93-6.2-2.73-9.37-4.13-6.2-2.73,2.18-6.42,4.77-14.05c-2.07-1.76-3.97-3.69-5.68-5.78l-14.13,4.1-6.5,1.89-2.45-6.31-.33-.85c-32.6,11.96-60.63,33.47-80.69,61.12l49.85,28.78c21.25-26.37,53.79-43.28,90.21-43.28s68.52,16.68,89.77,42.76l49.88-28.8c-20.04-27.41-47.96-48.74-80.39-60.61ZM358.78,103.91l-6.48,19.12,9.37,4.13,9.8-17.82c2.83.64,5.72.97,8.61.97,2.48,0,4.96-.24,7.41-.71l9.05,18.33,9.55-3.7-5.69-19.63c.99-.6,1.96-1.23,2.9-1.94,3.5-2.6,6.4-5.69,8.75-9.08l19.25,6.53,1.28-2.91c-4.64-1.47-9.36-2.76-14.16-3.85-5.34-1.21-10.78-2.17-16.29-2.86-1.83-.24-3.67-.43-5.52-.61t0,0c-.55.51-1.13.98-1.74,1.43-4.42,3.29-9.59,4.88-14.71,4.88-5.96,0-11.85-2.14-16.45-6.27-5.52.53-10.97,1.32-16.33,2.36.51.81,1.01,1.61,1.59,2.38,2.79,3.75,6.14,6.8,9.83,9.23ZM346.8,92.41c-4.23.83-8.4,1.81-12.51,2.96-2.12.59-4.23,1.21-6.31,1.88l.22.56,18.61-5.4ZM531.72,328.15l-10.29-16.2-9.08,4.71,7.28,17.74c-.95.73-1.87,1.48-2.77,2.31-3.45,3.19-6.14,6.88-8.15,10.83l-18.84-4.2-3.1,9.76,17.94,7.5c-.67,5.58-.11,11.28,1.66,16.69l-16.64,10.57,2.94,5.67c1.24-1.05,2.47-2.13,3.67-3.23,1.35-1.23,2.68-2.47,3.99-3.75h0c3.78-3.65,7.39-7.47,10.83-11.45,2.57-2.97,5.03-6.02,7.4-9.17-.21-6.88,2.45-13.81,7.9-18.85,2.09-1.94,4.44-3.45,6.92-4.53,2.62-4.95,5-10.05,7.14-15.28.11-.27.22-.54.33-.81-3.08.19-6.15.75-9.14,1.68ZM535.83,186.46l-49.64,28.66c6.4,14.37,9.96,30.27,9.96,47,0,59-44.32,107.83-101.4,114.95v57.41c34.55-2.86,66.24-15.94,92.07-36.17l-3.66-7.06-3.12-6.02,5.72-3.63,12.11-7.7c-.54-2.8-.82-5.66-.84-8.51l-13.12-5.48-6.25-2.62,2.05-6.45,3.1-9.76,2.05-6.45,6.61,1.47,13.61,3.03c1.68-2.48,3.58-4.77,5.69-6.85l-5.27-12.82-2.57-6.27,6.02-3.11,9.08-4.7,6.01-3.11,3.63,5.71,7.45,11.73c2.7-.48,5.44-.73,8.2-.73h.33c6.22-17.83,9.61-36.96,9.61-56.87,0-27.12-6.27-52.79-17.43-75.66ZM264.54,262.12c0-16.47,3.45-32.16,9.69-46.37l-49.67-28.68c-10.97,22.71-17.13,48.17-17.13,75.05,0,19.15,3.14,37.59,8.91,54.82.52,1.56,1.07,3.12,1.63,4.66.34-.02.69-.02,1.03-.02,1.1,0,2.21.04,3.31.11l6.09-12.52,2.97-6.09,6.32,2.42,9.56,3.65,6.33,2.42-1.86,6.52-3.88,13.66c2.25,1.79,4.32,3.79,6.18,5.96l13.52-4.66,6.4-2.21,2.76,6.18,4.18,9.34,2.77,6.18-5.92,3.3-12.86,7.17c.29,2.7.34,5.4.15,8.1l13.33,6.49,6.09,2.97-2.42,6.33-3.65,9.56-1.56,4.09c24.8,18.62,54.76,30.74,87.3,33.79v-57.5c-56.18-7.93-99.56-56.34-99.56-114.71ZM256.98,375.43c1.08-5.38.98-10.94-.26-16.33l17.41-9.7-4.18-9.34-18.6,6.42c-.75-1.16-1.57-2.29-2.47-3.37-2.79-3.39-6.05-6.13-9.58-8.32l5.31-18.71-9.56-3.65-8.43,17.32c-1.89-.38-3.8-.62-5.73-.71.99,2.35,2.03,4.67,3.11,6.96,1.47,3.1,3.02,6.14,4.68,9.12,3.5,1.5,6.7,3.84,9.29,6.97,3.81,4.62,5.66,10.22,5.64,15.78,1.98,2.56,4.03,5.06,6.15,7.5h0c5.3,6.11,11.01,11.84,17.1,17.15l4.59,1.3,3.65-9.56-18.12-8.83Z"/>
      <g>
        <path class="cls-2" d="M418.33,64.69l17.87-8.82-3.71-9.54-18.9,5.47c-.69-1.19-1.46-2.35-2.3-3.49-2.62-3.52-5.74-6.44-9.16-8.79l6.24-18.41-9.36-4.12-9.3,16.88c-3.1-.8-6.31-1.19-9.52-1.19-2.53,0-5.06.24-7.56.73l-8.5-17.21-9.54,3.7,5.34,18.41c-1.02.62-2.02,1.28-3,2.01-3.77,2.79-6.84,6.18-9.27,9.88l-18.28-6.19-4.13,9.36,17.04,9.38c-1.26,5.48-1.32,11.21-.14,16.78l-17.68,8.72,3.49,8.98.22.56,18.61-5.4h.05c.17-.05.35-.08.52-.11.51.81,1.01,1.61,1.59,2.38,2.79,3.75,6.14,6.8,9.83,9.23l-6.48,19.12,9.37,4.13,9.8-17.82c2.83.64,5.72.97,8.61.97,2.48,0,4.96-.24,7.41-.71l9.05,18.33,9.55-3.7-5.69-19.63c.99-.6,1.96-1.23,2.9-1.94,3.5-2.6,6.4-5.69,8.75-9.08l19.25,6.53,1.28-2.91h0l2.84-6.46-17.66-9.72c1.34-5.31,1.53-10.88.56-16.33ZM396.59,89.89c-.55.51-1.13.98-1.74,1.43-4.42,3.29-9.59,4.88-14.71,4.88-5.96,0-11.85-2.14-16.45-6.27-1.22-1.09-2.36-2.32-3.38-3.7-8.14-10.94-5.87-26.41,5.08-34.55,4.42-3.29,9.6-4.88,14.72-4.88,7.54,0,14.99,3.45,19.83,9.96,7.69,10.33,6.09,24.71-3.34,33.13t0,0Z"/>
        <path class="cls-4" d="M347.34,92.26l-.5.15c.17-.04.35-.07.52-.11,0-.02-.02-.02-.02-.04Z"/>
        <path class="cls-1" d="M439.61,99.6l-1.54,3.5-2.73,6.19-6.41-2.17-14.31-4.85c-1.73,1.95-3.61,3.74-5.64,5.35l4.22,14.54,1.88,6.5-6.31,2.45-9.54,3.71-6.31,2.44-3-6.07-6.71-13.61c-1.04.07-2.08.11-3.12.11-1.55,0-3.1-.08-4.64-.24l-7.29,13.26-3.27,5.93-6.2-2.73-9.37-4.13-6.2-2.73,2.18-6.42,4.77-14.05c-2.07-1.76-3.97-3.69-5.68-5.78l-14.13,4.1-6.5,1.89-2.45-6.31-.33-.85c1.16-.42,2.32-.84,3.49-1.24,1.16-.4,2.33-.78,3.51-1.16l.22.56,18.61-5.4h.05c.17-.05.35-.08.52-.11.51.81,1.01,1.61,1.59,2.38,2.79,3.75,6.14,6.8,9.83,9.23l-6.48,19.12,9.37,4.13,9.8-17.82c2.83.64,5.72.97,8.61.97,2.48,0,4.96-.24,7.41-.71l9.05,18.33,9.55-3.7-5.69-19.63c.99-.6,1.96-1.23,2.9-1.94,3.5-2.6,6.4-5.69,8.75-9.08l19.25,6.53,1.28-2.91h0c1.18.37,2.35.76,3.53,1.17,1.17.4,2.34.81,3.5,1.23Z"/>
        <path class="cls-1" d="M439,84.27l5.93,3.27-2.73,6.19-2.59,5.87c-1.16-.42-2.32-.83-3.5-1.23-1.17-.41-2.35-.79-3.53-1.17l2.84-6.46-17.66-9.72c1.34-5.31,1.53-10.88.56-16.33l17.87-8.82-3.71-9.54-18.9,5.47c-.69-1.19-1.46-2.35-2.3-3.49-2.62-3.52-5.74-6.44-9.16-8.79l6.24-18.41-9.36-4.12-9.3,16.88c-3.1-.8-6.31-1.19-9.52-1.19-2.53,0-5.06.24-7.56.73l-8.5-17.21-9.54,3.7,5.34,18.41c-1.02.62-2.02,1.28-3,2.01-3.77,2.79-6.84,6.18-9.27,9.88l-18.28-6.19-4.13,9.36,17.04,9.38c-1.26,5.48-1.32,11.21-.14,16.78l-17.68,8.72,3.49,8.98c-1.18.37-2.35.76-3.51,1.16-1.17.4-2.33.81-3.49,1.24l-3.38-8.69-2.45-6.31,6.08-3,12.86-6.35c-.24-2.85-.2-5.72.08-8.55l-12.46-6.86-5.94-3.27,2.74-6.2,4.13-9.37,2.73-6.19,6.41,2.18,13.2,4.47c1.93-2.28,4.07-4.35,6.4-6.2l-3.86-13.32-1.89-6.5,6.32-2.45,9.54-3.71,6.31-2.44,2.99,6.07,6.16,12.46c1.08-.07,2.18-.11,3.27-.11,1.88,0,3.76.11,5.61.34l6.71-12.2,3.27-5.93,6.19,2.73,9.37,4.12,6.2,2.73-2.18,6.42-4.56,13.45c2.16,1.91,4.12,4,5.87,6.26l13.74-3.98,6.5-1.89,2.45,6.31,3.71,9.54,2.45,6.31-6.07,3-13.21,6.52c.15,2.71.07,5.41-.26,8.1l12.99,7.14Z"/>
        <path class="cls-1" d="M396.6,89.89s0,0,0,0c-.55.51-1.13.98-1.74,1.43-4.42,3.29-9.59,4.88-14.71,4.88-5.96,0-11.85-2.14-16.45-6.27-1.22-1.09-2.36-2.32-3.38-3.7-8.14-10.94-5.87-26.41,5.08-34.55,4.42-3.29,9.6-4.88,14.72-4.88,7.54,0,14.99,3.45,19.83,9.96,7.69,10.33,6.09,24.71-3.34,33.13Z"/>
      </g>
      <g>
        <path class="cls-2" d="M581.69,370.65c.77-5.43.35-10.99-1.19-16.3l16.82-10.69-4.7-9.08-18.21,7.47c-.81-1.11-1.7-2.19-2.66-3.22-2.97-3.22-6.39-5.78-10.04-7.76l4.23-18.98-9.76-3.1-7.42,17.78c-1.8-.26-3.62-.38-5.43-.38-.82,0-1.65.02-2.47.08-3.08.19-6.15.75-9.14,1.68l-10.29-16.2-9.08,4.71,7.28,17.74c-.95.73-1.87,1.48-2.77,2.31-3.45,3.19-6.14,6.88-8.15,10.83l-18.84-4.2-3.1,9.76,17.94,7.5c-.67,5.58-.11,11.28,1.66,16.69l-16.64,10.57,2.94,5.67,1.77,3.42,18.44-7.58c.6.75,1.2,1.51,1.87,2.22,3.17,3.42,6.84,6.11,10.75,8.13l-4.4,19.7,9.76,3.1,7.84-18.77c1.5.18,3,.26,4.5.26,3.86,0,7.73-.57,11.46-1.72l10.97,17.26,9.09-4.71-7.76-18.89c.92-.71,1.82-1.44,2.68-2.24,3.19-2.96,5.74-6.34,7.71-9.97l19.85,4.42,3.1-9.75-18.6-7.76ZM560.02,383.33c-4.75,4.4-10.77,6.57-16.77,6.57-6.64,0-13.26-2.66-18.13-7.92-4.22-4.56-6.4-10.29-6.56-16.05-.21-6.88,2.45-13.81,7.9-18.85,2.09-1.94,4.44-3.45,6.92-4.53,3.14-1.37,6.49-2.04,9.85-2.04,6.63,0,13.26,2.66,18.12,7.92,9.27,10,8.67,25.64-1.34,34.9Z"/>
        <path class="cls-1" d="M560.02,383.33c-4.75,4.4-10.77,6.57-16.77,6.57-6.64,0-13.26-2.66-18.13-7.92-4.22-4.56-6.4-10.29-6.56-16.05-.21-6.88,2.45-13.81,7.9-18.85,2.09-1.94,4.44-3.45,6.92-4.53,3.14-1.37,6.49-2.04,9.85-2.04,6.63,0,13.26,2.66,18.12,7.92,9.27,10,8.67,25.64-1.34,34.9Z"/>
        <path class="cls-1" d="M609.39,374.19l-2.04,6.45-3.1,9.76-2.05,6.45-6.61-1.47-14.75-3.29c-1.52,2.13-3.19,4.11-5.03,5.94l5.75,14,2.57,6.27-6.02,3.11-9.08,4.71-6.01,3.11-3.63-5.71-8.14-12.81c-2.55.45-5.13.68-7.72.7l-5.83,13.96-2.61,6.26-6.45-2.05-9.77-3.1-6.45-2.05,1.47-6.61,3.23-14.49c-2.25-1.53-4.34-3.24-6.27-5.12l-13.61,5.58-6.26,2.57-3.11-6.01-1.05-2.03c.99-.77,1.97-1.55,2.94-2.36.98-.78,1.95-1.6,2.91-2.43l1.77,3.42,18.44-7.58c.6.75,1.2,1.51,1.87,2.22,3.17,3.42,6.84,6.11,10.75,8.13l-4.4,19.7,9.76,3.1,7.84-18.77c1.5.18,3,.26,4.5.26,3.86,0,7.73-.57,11.46-1.72l10.97,17.26,9.09-4.71-7.76-18.89c.92-.71,1.82-1.44,2.68-2.24,3.19-2.96,5.74-6.34,7.71-9.97l19.85,4.42,3.1-9.75-18.6-7.76c.77-5.43.35-10.99-1.19-16.3l16.82-10.69-4.7-9.08-18.21,7.47c-.81-1.11-1.7-2.19-2.66-3.22-2.97-3.22-6.39-5.78-10.04-7.76l4.23-18.98-9.76-3.1-7.42,17.78c-1.8-.26-3.62-.38-5.43-.38-.82,0-1.65.02-2.47.08.5-1.25.99-2.5,1.46-3.76.46-1.23.91-2.47,1.34-3.72h.33l5.37-12.86,2.61-6.25,6.45,2.05,9.76,3.1,6.45,2.04-1.47,6.62-3.09,13.87c2.35,1.66,4.53,3.54,6.51,5.6l13.23-5.43,6.26-2.57,3.12,6.01,4.71,9.09,3.11,6.01-5.72,3.63-12.42,7.89c.44,2.68.64,5.38.6,8.07l13.68,5.71,6.25,2.61Z"/>
        <path class="cls-1" d="M543.66,318.99c-.43,1.25-.88,2.48-1.34,3.72-.47,1.26-.96,2.52-1.46,3.76-3.08.19-6.15.75-9.14,1.68l-10.29-16.2-9.08,4.71,7.28,17.74c-.95.73-1.87,1.48-2.77,2.31-3.45,3.19-6.14,6.88-8.15,10.83l-18.84-4.2-3.1,9.76,17.94,7.5c-.67,5.58-.11,11.28,1.66,16.69l-16.64,10.57,2.94,5.67c-.96.83-1.93,1.65-2.91,2.43-.97.81-1.96,1.6-2.94,2.36l-3.66-7.06-3.12-6.02,5.72-3.63,12.11-7.7c-.54-2.8-.82-5.66-.84-8.51l-13.12-5.48-6.25-2.62,2.05-6.45,3.1-9.76,2.05-6.45,6.61,1.47,13.61,3.03c1.68-2.48,3.58-4.77,5.69-6.85l-5.27-12.82-2.57-6.27,6.02-3.11,9.08-4.7,6.01-3.11,3.63,5.71,7.45,11.73c2.7-.48,5.44-.73,8.2-.73h.33Z"/>
      </g>
      <g>
        <path class="cls-3" d="M471.46,306.34l-2.2-1.2c-4.67,9.63-10.86,18.4-18.26,25.99l-12.87-12.87c6.31-6.5,11.39-13.88,15.14-21.85l-2.19-1.2c-3.7,7.91-8.69,15.1-14.69,21.3l-11.66-11.66c5.01-5.2,8.98-11.14,11.85-17.56l-2.18-1.19c-2.81,6.32-6.68,12.08-11.41,17l-12.89-12.89c3.58-3.8,6.35-8.17,8.23-12.9l-2.18-1.19c-1.8,4.61-4.46,8.8-7.79,12.35l-11.7-11.69c3.33-3.72,5.26-8.38,5.54-13.37h16.56c-.14,4.47-1.06,8.75-2.61,12.72l2.18,1.19c1.74-4.38,2.73-9.07,2.87-13.9h18.25c-.16,8.06-1.96,15.72-5.05,22.68l2.18,1.19c3.32-7.43,5.15-15.51,5.31-23.87h16.52c-.17,11.35-2.79,22.11-7.33,31.79l2.19,1.2c4.8-10.21,7.41-21.4,7.58-32.99h18.25c-.18,14.94-3.7,29.08-9.83,41.73l2.2,1.2c6.6-13.59,10.1-28.6,10.1-44.15,0-13.23-2.53-26.06-7.35-37.96l-2.26.97c4.53,11.23,6.99,23.31,7.14,35.77h-18.25c-.15-9.94-2.1-19.57-5.67-28.55l-2.24.96c3.45,8.68,5.33,17.99,5.48,27.59h-16.53c-.14-7.32-1.57-14.42-4.14-21.06l-2.24.96c2.45,6.34,3.81,13.11,3.95,20.1h-18.25c-.13-4.46-.97-8.8-2.47-12.89l-2.24.96c1.38,3.79,2.15,7.8,2.28,11.92h-16.56c-.27-4.98-2.21-9.65-5.54-13.37l11.71-11.71c3.62,3.85,6.35,8.31,8.11,13.15l2.24-.96c-1.88-5.12-4.79-9.84-8.63-13.91l12.91-12.9c5.51,5.73,9.71,12.39,12.5,19.61l2.24-.96c-2.91-7.5-7.29-14.41-13.02-20.37l11.69-11.69c7.24,7.46,12.8,16.12,16.52,25.52l2.24-.96c-3.85-9.68-9.58-18.6-17.04-26.28l12.9-12.91c9.13,9.35,16.17,20.2,20.92,31.98l2.26-.97c-5.02-12.43-12.53-23.85-22.3-33.61-9.8-9.8-21.27-17.33-33.75-22.35l-.9,2.29c11.81,4.76,22.68,11.8,32.05,20.95l-12.9,12.91c-7.55-7.32-16.31-13-25.81-16.84l-.89,2.27c9.19,3.73,17.66,9.22,24.97,16.32l-11.68,11.69c-5.68-5.46-12.23-9.71-19.33-12.61l-.89,2.27c6.79,2.78,13.06,6.85,18.5,12.07l-12.9,12.9c-3.63-3.42-7.78-6.11-12.27-7.98l-.89,2.27c4.18,1.75,8.04,4.25,11.43,7.43l-11.71,11.71c-3.72-3.33-8.38-5.26-13.37-5.54v-16.56c4.76.15,9.36,1.16,13.64,2.95l.89-2.27c-4.56-1.91-9.47-2.97-14.54-3.12v-18.25c7.39.15,14.55,1.65,21.21,4.38l.89-2.27c-6.94-2.84-14.4-4.4-22.1-4.55v-16.53c9.8.15,19.3,2.1,28.14,5.69l.89-2.27c-9.12-3.69-18.92-5.71-29.03-5.86v-18.25c12.43.15,24.49,2.6,35.7,7.11l.9-2.29c-11.86-4.78-24.64-7.29-37.82-7.29-16.27,0-31.65,3.88-45.28,10.73l1.11,2.13c13.19-6.61,27.79-10.21,42.95-10.4v18.25c-12.36.18-24.05,3.18-34.47,8.36l1.11,2.12c10.26-5.08,21.6-7.87,33.36-8.04v16.53c-9.19.18-17.89,2.39-25.68,6.19l1.12,2.13c7.58-3.68,15.91-5.71,24.56-5.89v18.25c-5.74.17-11.18,1.53-16.09,3.83l1.12,2.14c4.65-2.16,9.72-3.37,14.97-3.54v16.56c-2.57.14-5.02.73-7.28,1.68l1.12,2.14c2.31-.95,4.8-1.44,7.38-1.44,5.2,0,10.09,2.02,13.77,5.7,3.68,3.68,5.7,8.57,5.7,13.77,0,10.73-8.73,19.47-19.47,19.47-5.2,0-10.09-2.03-13.77-5.7-3.68-3.68-5.7-8.57-5.7-13.77s2.03-10.09,5.7-13.77c1.86-1.86,4.03-3.29,6.39-4.26l-1.12-2.14c-2.24.95-4.3,2.26-6.09,3.86l-11.71-11.71c3.03-2.84,6.43-5.14,10.11-6.85l-1.12-2.14c-3.95,1.85-7.56,4.32-10.7,7.28l-12.92-12.92c4.53-4.35,9.64-7.89,15.14-10.56l-1.12-2.13c-5.81,2.84-11.12,6.55-15.73,10.99l-11.71-11.71c5.91-5.73,12.58-10.4,19.76-13.96l-1.11-2.12c-7.52,3.73-14.38,8.59-20.35,14.38l-12.93-12.93c7.41-7.24,15.78-13.15,24.79-17.67l-1.11-2.13c-19.71,9.9-35.75,26.04-45.52,45.83l2.12,1.14c4.56-9.27,10.58-17.86,18-25.46l12.93,12.93c-6.02,6.2-11.04,13.36-14.83,21.22l2.11,1.14c3.61-7.53,8.44-14.51,14.41-20.67l11.71,11.71c-4.72,4.91-8.62,10.6-11.52,16.85l2.12,1.14c2.73-5.94,6.45-11.45,11.1-16.29l12.92,12.92c-3.3,3.5-5.99,7.59-7.9,12.08l2.13,1.15c1.75-4.22,4.27-8.11,7.48-11.53l11.71,11.71c-3.22,3.59-5.26,8.24-5.54,13.36h-16.56c.15-4.72,1.14-9.3,2.91-13.55l-2.13-1.15c-1.93,4.54-3.06,9.5-3.21,14.7h-18.25c.16-8.21,2.01-16.14,5.34-23.42l-2.12-1.14c-3.47,7.5-5.49,15.8-5.66,24.56h-16.53c.17-11.41,2.79-22.43,7.59-32.45l-2.11-1.14c-4.91,10.2-7.73,21.58-7.91,33.59h-18.25c.18-14.91,3.66-29.27,10.06-42.29l-2.12-1.14c-6.65,13.48-10.41,28.63-10.41,44.65,0,9.8,1.4,19.38,4.07,28.53l2.39-.6c-2.51-8.57-3.89-17.54-4-26.71h18.25c.11,7.65,1.29,15.12,3.45,22.25l2.37-.6c-2.12-6.94-3.27-14.21-3.38-21.65h16.53c.12,6.06,1.12,11.98,2.92,17.6l2.37-.6c-1.75-5.43-2.73-11.15-2.85-17.01h18.25c.13,4.33.93,8.55,2.35,12.54l2.37-.6c-1.38-3.79-2.15-7.81-2.28-11.94h16.56c.27,4.98,2.2,9.65,5.54,13.37l-11.71,11.71c-3.61-3.84-6.35-8.3-8.1-13.14l-2.37.6c1.87,5.25,4.83,10.1,8.75,14.26l-12.9,12.91c-6.28-6.54-10.87-14.28-13.59-22.69l-2.37.6c2.83,8.84,7.64,16.96,14.24,23.82l-11.69,11.69c-8.74-9.01-15.05-19.76-18.62-31.47l-2.37.6c3.68,12.12,10.21,23.26,19.26,32.59l-12.9,12.91c-11.42-11.7-19.58-25.75-24.06-41.04l-2.39.6c4.7,16.1,13.38,30.85,25.57,43.04,8.26,8.26,17.69,14.9,27.92,19.8l1.21-2.15c-9.68-4.61-18.64-10.83-26.53-18.53l12.9-12.9c6.71,6.51,14.35,11.7,22.62,15.48l1.2-2.14c-8.08-3.67-15.55-8.72-22.1-15.07l11.69-11.69c5.48,5.27,11.77,9.4,18.58,12.29l1.2-2.13c-6.61-2.78-12.73-6.77-18.05-11.88l12.91-12.91c4.15,3.91,8.97,6.86,14.21,8.73l1.22-2.16c-5.05-1.75-9.71-4.55-13.7-8.3l11.71-11.71c3.72,3.33,8.38,5.27,13.37,5.54v16.56c-3.93-.12-7.75-.84-11.37-2.09l-1.22,2.16c4,1.43,8.24,2.24,12.59,2.37v18.25c-7.55-.15-14.87-1.71-21.65-4.56l-1.2,2.13c7.15,3.04,14.87,4.71,22.85,4.87v16.53c-10.87-.17-21.38-2.56-31.01-6.93l-1.2,2.14c10,4.57,20.92,7.06,32.22,7.23v18.25c-14.5-.17-28.49-3.46-41.22-9.53l-1.21,2.15c13.46,6.44,28.29,9.85,43.65,9.85,16.11,0,31.64-3.76,45.61-10.83l-1.15-2.24c-13.03,6.6-27.7,10.41-43.24,10.6v-18.25c12.32-.18,24.18-3.14,34.89-8.52l-1.14-2.21c-10.19,5.13-21.63,8.1-33.76,8.29v-16.53c9.24-.18,18.14-2.4,26.2-6.42l-1.13-2.2c-7.58,3.78-16.08,5.99-25.07,6.17v-18.25c5.89-.17,11.55-1.59,16.71-4.11l-1.12-2.18c-4.74,2.31-10.01,3.68-15.59,3.86v-16.56c4.99-.27,9.65-2.2,13.37-5.54l11.69,11.7c-2.8,2.63-5.99,4.84-9.48,6.54l1.12,2.18c3.65-1.79,7.06-4.13,10.09-6.99l12.88,12.89c-4.3,4.13-9.23,7.61-14.62,10.29l1.13,2.2c5.53-2.76,10.66-6.35,15.23-10.74l11.66,11.66c-5.68,5.51-12.2,10.15-19.34,13.73l1.14,2.21c7.25-3.64,13.97-8.39,19.95-14.19l12.87,12.87c-7.18,7.01-15.44,12.91-24.48,17.49l1.15,2.24c9.47-4.79,18.24-11.09,25.96-18.81,8.12-8.12,14.67-17.38,19.55-27.42v-.02Z"/>
        <rect class="cls-3" x="385.54" y="238.78" width=".61" height=".73" transform="translate(-9.23 15.58) rotate(-2.29)"/>
        <rect class="cls-3" x="384.63" y="237.79" width=".82" height=".62"/>
        <rect class="cls-3" x="383.25" y="236.96" width=".62" height=".72" transform="translate(92.03 581.49) rotate(-81.48)"/>
        <polygon class="cls-3" points="382.55 237.37 381.84 237.26 381.93 236.65 382.64 236.75 382.55 237.37"/>
        <rect class="cls-3" x="376.67" y="236.55" width=".82" height=".62"/>
        <polygon class="cls-3" points="374.89 237.78 375.6 237.89 375.69 237.27 374.98 237.17 374.89 237.78"/>
        <polygon class="cls-3" points="374.96 238.72 374.14 238.52 374.29 237.91 375.11 238.12 374.96 238.72"/>
        <polygon class="cls-3" points="373.5 239.49 373.4 238.87 374 238.77 374.11 239.39 373.5 239.49"/>
        <polygon class="cls-3" points="293.35 303.07 293.35 304.41 293.97 304.41 293.86 302.86 293.05 302.55 293.05 302.03 292.54 302.03 292.54 303.07 293.35 303.07"/>
        <polygon class="cls-3" points="297.64 306.8 299.17 307.52 299.69 308.97 300.4 309.49 301.11 311.05 300.71 311.77 299.58 310.73 298.77 309.6 298.36 308.66 297.64 306.8"/>
        <polygon class="cls-3" points="323.47 338.71 323.99 340.06 323.27 340.47 322.86 339.85 321.84 339.54 321.74 338.61 320.92 337.36 322.15 337.57 323.47 338.71"/>
        <path class="cls-3" d="M377.18,245.46h-1.12l-.2-2.28.61-.42v-1.14h-3.57l-.1-1.14.51-.31-.82-.31-.61.83-.2.93-1.02.21v.52h-.71v1.35l-2.86,2.38-5.72-.21c-.41.93-1.43-.11-1.43-.11-.2-.62-1.63,0-1.63,0,0,1.14-1.94-.52-1.94-.52l-3.57-2.59c-2.04-1.87-5.1.52-5.21,1.04.1,1.45-2.35.31-2.35.31,0,0-2.04-.62-2.35.21-.31.83-1.64.62-1.64.62l-.2.41-1.02.21-.2.62-1.23.21,3.06-.1c.82-.1-.31,1.76-.82,1.66l-1.43.1-.51.52h-1.33l-.61.83-1.94-.1s-1.12.93-1.02,1.24c.1.31-.2,1.24-.51,1.24s-.92.93-.71,1.24c.21.31-.61,1.35-.61,1.35l-.2,1.04-.61.21v2.8l-1.23.83v1.24l-1.84,1.97.21,1.66-1.53,1.66.2,1.66-.92.31-.2.73-.41,2.18,1.02.1c.51-.21.41,1.35,0,1.55-.41.21-1.53.62-.92,1.04.61.42-1.63.31-1.63-.31s-1.23-1.14-1.53-.93c-.31.21-.82-.93-.82-.93-1.12-1.14-4.59.1-4.59.1l-.51,1.66c-1.12.21-1.84,2.07-1.84,2.07-.92.31-1.63,1.45-1.33,1.76.31.31-.51.41-.51.41v2.28l-.51.73.1,2.49c.61,0,.51,1.14.51,1.14-1.02.1-.82,1.45-.82,1.45l-2.14.72-.41.62-2.65-.1-.71.73-.72-.73h-5.1l-.2-.52-1.02-.21-.1-1.14-1.53.1-.31.62-1.63.1c.1,1.04-1.63,2.59-1.84,2.18-.21-.42-1.33-1.56-.82-1.76.51-.21,1.84-.42,1.84-.42v-.72l-3.78-.1-.41.62-1.53.1v1.66l-.71.21c-.51.31.1,1.45.1,1.45.71.72-.1,1.86-.1,1.86-.61.62.51,1.76.51,1.76.82.21-.51.83-.51.83.2,1.04.82,1.35.82,1.35-.61,1.04.41,1.55.41,1.55l.1,1.76.71.42v1.14l.41.73h1.63l-.1-2.59c-1.43-1.66,1.22-2.07,1.33-1.45.1.62,1.23.93,1.23.93.2,1.55,1.94,2.49,2.45.93.51-1.56.92-.62,1.23.1.31.73,2.24,2.49,2.24,2.49h1.53l.21,1.45c1.74-.1,2.24.11,2.96,2.49.72,2.38,2.66,3,2.66,3l1.43-.1c0-1.24,1.43.21,1.43.83s2.76,3,2.76,3l2.76.62,2.56,2.07,1.94-.21h.82c.51-1.76,2.96.1,3.16.72.21.62,1.84,1.66,2.04,1.14.21-.52,1.33-.21,1.53,1.35.2,1.56.92,1.24.92,1.24l5.82-.1,2.04-1.76,5.21-.1c2.65-.1,1.02-3.73.51-3.73-.92-.72.31-3.73.31-3.73l-7.45-6.94c-1.74,0-.2-2.49-.2-2.49,1.33-.83-.31-2.17-.31-2.17.21-1.25-.71-2.7-.71-2.7-1.84-1.24-1.33-3.63-1.33-3.63v-1.66c-1.53-1.45.61-1.66.61-1.66.71-1.24-.51-2.17-.51-2.17l-.1-1.35-1.63-.21-.2-4.87-3.68-5.28c-.72-.21-.21-1.45-.21-1.45.92-.52-.21-1.76-.21-1.76l-.1-2.28,2.14-.21.51-.83h1.02l-.1-2.69c.51-1.35,1.73-.62,1.73-.62l1.43.1.82-1.55.2-1.24-1.12-.1c-1.23-.73-.61-3.42-.61-3.42,1.94-2.9,4.18-1.24,4.18-1.24l1.43-.1c2.14,1.45.2,4.14.2,4.14-.41.62-.2,2.59-.2,2.59l.51,3.31-1.33,1.14c-1.12.62-1.12,2.07.1,2.38.82.1.51,2.07-.72.72-1.84,0,1.02,1.66.21,1.24,1.84.93,1.43-.83,1.43-.83l2.45-1.97c.92-.72,2.55,1.56,2.55,1.87s4.08.1,4.08.1c1.12.73,1.53,2.59,1.53,2.59,1.12-1.45,3.47-.11,1.74.72,1.63,1.04,1.63,1.97,1.63,1.97,1.33-.41,1.33.62,1.33.93s.41-1.55.41-1.55c-1.53-1.14,2.04-1.55,1.02.52l-.61.93,1.02.83.1,2.38c2.25-.21,1.63-3.01,1.63-3.01l1.02-.21c0-.93.71-.42.71-.42-.71-3.52,1.63-4.14,1.63-4.14,1.33-.31,1.43-3.11,1.43-3.11-.92-.41-.41-1.86.61-.62,1.02,1.24-.61-2.49-.61-2.49l-.82-.72-1.12-.1-.1-1.14h-1.84l-.31,1.45-.71.21-.21-.42-.31,1.14h-1.84l-.1-1.24,1.12-.31.41-.62.31-1.66h1.33l1.74-.52c.1-1.76,1.02-1.35,1.02-1.35l.61.52.92.73.1.62-.61.31-.1.83.31,1.14h.82c.31-1.66,2.45-1.66,3.06-.62l.61-1.45c-1.43-.73-.03-1.87.38-1.35.41.52,1.35-1.35,1.35-1.35,0,0,.71.93,0-.31s.51-1.86.51-1.86c-.2-1.24,1.33-1.04,1.33-1.04l.1-1.66-1.43-.1c-.3,1.45-1.53.21-.92-.1.61-.31,1.22-.93,1.22-.93v-1.04l.61-.21.1-1.04h1.53l1.33-.62.31-.52,1.43-.1,2.04-1.87-.2-.83c-1.23,0,0-.93,0-.93l.2-1.55h0Z"/>
        <path class="cls-3" d="M336.03,265.97l-1.84-.21.1.72h.51c.82,1.45.1,4.97.1,4.97,0,0-1.22.1-1.43-.52-.2-.62-.71,1.35-.31,1.66.41.31,1.84,0,1.94,1.14.1,1.14.92-.73.92-.73v-7.05h0Z"/>
        <polygon class="cls-3" points="334.19 274.37 334.19 276.85 335.83 279.03 336.44 277.58 336.65 276.64 335.93 276.34 336.03 274.78 336.65 274.67 336.75 273.95 335.21 274.99 334.19 274.37"/>
        <polygon class="cls-3" points="336.85 281.31 336.85 280.27 336.14 280.37 336.03 281.2 336.85 281.31"/>
        <polygon class="cls-3" points="335.93 286.28 335.93 285.56 335.06 285.66 335.06 286.39 335.93 286.28"/>
        <path class="cls-3" d="M337.13,283.09c.24,0,.43-.2.43-.44s-.19-.44-.43-.44-.43.2-.43.44.19.44.43.44Z"/>
        <path class="cls-3" d="M337.84,284.39c.24,0,.43.2.43.44s-.19.44-.43.44-.43-.2-.43-.44.19-.44.43-.44Z"/>
        <ellipse class="cls-3" cx="337.87" cy="272.99" rx=".43" ry=".44"/>
        <polygon class="cls-3" points="370.64 258.93 371.26 258.93 371.36 259.55 370.95 259.96 370.75 260.48 369.93 260.69 368.09 262.45 367.99 263.28 367.48 264 366.87 265.56 364.72 265.66 364.31 267.53 364.62 269.08 366.45 269.81 366.66 268.77 367.27 268.46 367.38 267.42 367.78 266.69 368.4 265.97 368.6 265.14 369.62 264.52 370.85 264.31 371.36 263.69 371.56 262.45 371.64 261.52 372.07 260.89 373.3 260.38 373.3 258.41 372.69 258.41 372.58 257.68 371.46 257.58 371.26 258.1 370.75 258.1 370.64 258.93"/>
        <path class="cls-3" d="M375.44,264.73v-1.45l-.21-1.35-1.53-.72-1.12,1.04-.21,1.45v.93l-1.02.21-.21,2.8-.82.31.1,1.04-1.12.31-1.12.31-.2,1.35-.82.52-.41,1.24-.51,3s.92,1.76,1.43.93c.51-.83,1.33-.93,1.33-.93l.31-.73,2.76.1c.2-1.14,1.53-.72,1.53-.21s1.02.1,1.02.1l.71-1.14h1.12l.1-1.24.51-.31v-1.87c1.63-.52,1.43-2.07,1.43-2.07l.41-.52-.2-.72c-.82-.31-.41-1.04.1-.83.51.21-.71-.93-.71-.93-.61.52-1.12-.62-1.12-.62h-1.53,0Z"/>
        <path class="cls-3" d="M377.07,277.27c-.1,1.24-1.63,1.66-1.63,1.66l-1.12-.31-.61-.52-.1-1.45.92-.1.2.62,2.35.1h0Z"/>
        <path class="cls-3" d="M382.59,270.64c.22.9.2-1.45.61-1.35.41.1.1-1.45.1-1.45l-1.84,1.34c.92.11,1.02,1.04,1.12,1.45Z"/>
        <path class="cls-3" d="M388,265.25c.41.93.31,2.28,1.84,3.32.52.35-.31,1.04-.82.72-.51-.31-1.94-2.59-1.94-2.59v-1.35c.31-.83.74-.5.92-.1h0Z"/>
        <polygon class="cls-3" points="388 296.75 388.3 297.06 388.61 297.57 389.32 296.44 388.71 296.23 388 296.75"/>
        <polygon class="cls-3" points="400.21 293.59 401.03 293.07 400.7 292.55 399.89 293.06 400.21 293.59"/>
        <path class="cls-3" d="M429.76,315.19l.92.41.1,1.76c1.23,1.24,5.21.21,5.21-.1s-.21-3.83-.21-3.83l-.51-.52-.1-2.59c.41-1.35-1.94-3.32-2.14-2.9-.2.41-1.53.1-1.53.52s-.82,2.49-.41,3.21c.41.73-.31.73-.41,1.45-.1.73-1.12,1.97-.92,2.59h0Z"/>
        <path class="cls-3" d="M427.51,311.05c-.19.79-.92,1.24-1.33.93-.41-.31.51.52.71.93.2.41.82.41,1.02,0,.2-.42.1-1.35.31-1.76.2-.42-.61-.52-.72-.1h0Z"/>
        <rect class="cls-3" x="422.76" y="292.04" width=".71" height="1.97"/>
        <path class="cls-3" d="M433.33,272.09c-.45-.6,2.04-1.66,2.45-.41.41,1.24,0,1.04-.41.93-.41-.1-1.43.31-2.04-.52h0Z"/>
        <rect class="cls-3" x="435.73" y="258.04" width=".62" height="1.14" transform="translate(106.74 644.07) rotate(-80.16)"/>
        <polygon class="cls-3" points="432.66 259.99 432.74 260.18 433.31 259.95 433.1 259.43 432.97 259.11 432.67 259.28 431.91 259.71 431.25 259.29 430.92 259.81 431.74 260.33 431.89 260.42 432.05 260.34 432.66 259.99"/>
        <path class="cls-3" d="M436.5,234.78h-1.53s.51.21-.92-1.14c-1.43-1.35-2.35.31-2.35.31l-1.63.21v1.66l-.82.31.1,1.04,1.12-.1s0,1.24.31.73c.31-.52,2.86.1,2.65,1.35-.08.51,2.55,1.86,2.25,3.52,1.33.21,1.02,1.56,1.02,1.56l1.73.21.51-1.04.51.1v-.62l-1.12-.31-.2-3.32-.71-.52.2-.83-.82-.31.41-1.35-.72-1.45h0Z"/>
        <path class="cls-3" d="M440.99,245.35l-.82-.1-1.84.31-1.02,1.97s.51.31.92,1.04c.41.73.61,4.97-.61,5.7-1.22.73.1.31.1.31l-.21,2.28c.31,1.04.82.52,1.12,0,.31-.52.62-.62,1.02-1.14.41-.52,1.02-1.45,1.12-2.18.1-.72.61-1.86.31-2.18-.31-.31.31-1.76.31-1.76,0,0,.41-.83,0-1.66-.41-.83.1-1.76.41-2.18l-.82-.41h0Z"/>
        <polygon class="cls-3" points="442.22 249.58 442.32 248.75 442.93 248.83 442.83 249.66 442.22 249.58"/>
        <polygon class="cls-3" points="442.18 252.44 441.64 252.17 441.94 251.54 442.49 251.82 442.18 252.44"/>
        <path class="cls-3" d="M441.29,244.22l-.41-.93s0-.83.2-1.24c.21-.41-.41-.83-.71-.93-.31-.1-.2-.93-.31-1.35-.1-.41-.82-.72-.82-.72,0,0-.21-1.55-.21-1.86s-.92-.73-.61-1.04c.31-.31.51-.72.82-.93.31-.21-.31-1.66.2-1.35.51.31.51.83.72,1.24.2.41-.1,1.87.41,2.18.51.31-.1,1.35.71,1.35s.31,1.97.31,1.97c0,0-.21,1.45.3,1.55.51.1.21,2.59.21,2.59l-.82-.52h0Z"/>
        <path class="cls-3" d="M434.66,227.42c.31.41.92.72.92,1.14s-.2.72.41.83c.61.1,1.02-.1,1.22.41.2.52.2,1.35.1,1.76-.1.42.1,1.04.61,1.04s.61.1.61.42.61-1.14.61-1.14c-.51-.41-.92-1.35-.92-1.35,0,0-.51-1.45-.51-1.66s-.71-.42-1.02-.52c-.31-.1-.82-1.04-.82-1.04l-1.22.1h0Z"/>
        <path class="cls-3" d="M435.68,226.5c-.31-.42-.61-.73-1.02-.93-.41-.21-.71-.42-1.12-.42s-.82-.42-.61-.93c.21-.52-.31-.73-.31-1.14s.31-.41.82-.1c.51.31.41.41.82.93.41.52.61,1.04,1.02.93.41-.1.72.93,1.12.62.41-.31.31.73.31.73l-1.02.31h0Z"/>
        <path class="cls-3" d="M423.73,238.2c.56.57-3.06.41-3.06,0s.31-1.86,1.22-1.56c.92.31,1.02-1.86,1.02-1.86,0,0-.82.1-.1-.31.71-.41,0-1.04-.31-1.35-.31-.31-.61-.83-.61-.83h1.43c.61-.42.82-2.38.82-2.38,1.22.41,1.84-.42,1.84-.42,0,0,.21.62.61,1.14.41.52-1.02.72-.51,1.04.51.31.71,1.24.51,1.55-.21.31-1.33.1-1.33-.31s-.41.52,0,1.04c.41.52-.51,1.24-.71,1.24s-1.53.21-.41.83c1.12.62,2.35.31,2.35.31,0,0,.92-.1,1.22.41.31.52-.1.62-.61.62s-2.96-.21-2.96-.21c0,0-.71.73-.41,1.04h0Z"/>
        <path class="cls-3" d="M417.2,239.14c.51-.1,1.73-.21,1.94.1.21.31-.71.72-.71.72l-1.23.21c-.41-.52-.51-.93,0-1.04h0Z"/>
        <path class="cls-3" d="M430.37,230.43c.82-.41,2.55-.41,2.45-1.04-.1-.62,1.02-.83,1.02-.83l.31,1.24.92.62.1,1.14s.31-.21-.82.1c-1.12.31-.41.83-.41.83l-2.45.1-.31-1.04-.82-1.14h0Z"/>
        <path class="cls-3" d="M426.39,224.84c.62,0-.2,2.38,1.43,2.18,1.63-.21.1.73,1.33.83,1.23.11.92-.93,1.33-1.66.41-.73.21-1.14-.51-1.35q-.72-.21-.92-1.04c-.2-.83-1.02-1.04-1.02-1.04l-.31-1.24-1.33.83-1.33,1.76c0,1.35.71.73,1.33.73h0Z"/>
        <polygon class="cls-3" points="429.09 233.59 429.4 232.97 429.94 233.25 429.64 233.87 429.09 233.59"/>
        <rect class="cls-3" x="428.02" y="232.61" width=".61" height=".73"/>
        <polygon class="cls-3" points="428.53 218.8 428.64 219.73 428.03 219.8 427.93 218.87 428.53 218.8"/>
        <rect class="cls-3" x="426.8" y="228.46" width=".61" height=".52"/>
        <polygon class="cls-3" points="425.19 228.45 425.13 227.83 426.15 227.73 426.21 228.35 425.19 228.45"/>
        <polygon class="cls-3" points="416.77 238.42 416.21 238.17 416.51 237.45 417.07 237.69 416.77 238.42"/>
        <polygon class="cls-3" points="413.56 236.53 413.5 235.91 414.52 235.81 414.58 236.43 413.56 236.53"/>
        <rect class="cls-3" x="393.62" y="236.39" width="2.24" height=".62" transform="translate(-10.4 18.28) rotate(-2.62)"/>
        <polygon class="cls-3" points="392.1 237.24 391.9 236.31 392.49 236.17 392.7 237.1 392.1 237.24"/>
        <polygon class="cls-3" points="391.67 237.88 391.48 237.29 391.78 237.19 391.98 237.78 391.67 237.88"/>
        <path class="cls-3" d="M396.78,236.13l-.1.73,1.12.1s.51.42.51.72.72.62,1.12.62,1.53-.83,1.53-.83c0,0,.51-1.45.1-1.35-.41.1-1.23.73-1.33.1-.1-.62-1.33-.31-1.33-.31l-1.63.21h0Z"/>
        <path class="cls-3" d="M401.88,234.99c0,.31-.2.72.41.83.62.1,1.74-.41,1.84.21.1.62.1,1.04.92,1.35.82.31,1.33.41,1.94.41s1.94-.21,1.94-.21c0,0,1.44.23,1.73.52,1.12,1.14,1.84,1.45,2.14.93.31-.52-.1-1.66-.2-2.07-.1-.42-1.53-2.38-2.04-1.97-.51.42-.61,0-1.53.31-.92.31-2.86.11-2.96-.31-.1-.42-1.53-.62-1.53-1.04s-1.02-.93-.92-.31c.1.62-.71.93-.92.73-.2-.21-.82.62-.82.62h0Z"/>
        <path class="cls-3" d="M425.37,221.72l.72-2.28c-1.02-.21-.82-1.35-.82-1.35-.1-.93-1.53-1.97-2.04-1.66-.51.31-.31-2.18-.31-2.18,0,0,.92-.62,1.33-.31.41.31-3.47-5.18-4.29-4.66-.82.52-2.65-.52-2.55-1.45.1-.93-3.68-4.04-3.68-4.04,0,0-1.23-.83-1.43-.21-.2.62-.61,1.04,0,1.35.61.31.51-.52,1.22.21.71.73,2.04,1.66,1.53,2.28-.51.62-1.12.83-1.12.83l.72.83h1.12l.2,1.76s1.22.62,1.53,1.35c.31.72.31,1.14,0,1.55-.31.41-.92,1.14-.82,1.86.1.73.92,1.04.92,1.04l.82.1.61.31v1.35c.82-.21,2.14.93,2.04,1.66-.1.73.2.31,1.22,1.04,1.02.73.72.83,1.43,1.35.72.52,1.33.21,1.63-.73h0Z"/>
        <path class="cls-3" d="M408.52,207.64c-.1-.42-.31-1.87.31-1.76.61.1.2,0,.92.31.71.31.82-.52.82-.52h1.12l1.43,1.14-.2.93-1.02.1c-.51-.83-1.53-.52-1.33.21.2.72-.51,2.07-.92,2.18-.41.1-1.74.1-1.63-.52.1-.62.51-2.07.51-2.07h0Z"/>
        <path class="cls-3" d="M407.7,204.83v-.83s-.1-.83-.61-.83-1.43-.62-1.23-1.04c.21-.42-1.73-.83-1.73-.83,0,0-1.73-1.66-1.12-1.45.61.21.31-.73.31-.73,0,0-1.23.21-1.53.1-.31-.1-.21-1.04-.21-1.04,0,0-1.22-.31-1.22,0s.41.31.61.93c.21.62.1,1.66,1.02,1.86.92.21,1.12.41,1.23.83.1.42,1.22.52,1.22.52l.82.41,2.45,2.07h0Z"/>
        <polygon class="cls-3" points="396.68 194.27 396.37 193.44 395.56 193.23 395.56 194.17 396.68 194.27"/>
        <path class="cls-3" d="M396.37,189.92c-1.07-.81,1.43.62,1.43.62.82,0,1.33.62,1.33.93s1.12.21,1.12.21l.1-.73-.82-1.04-.71-.52s-1.12-.1-1.12-.42c0-.31-.92,1.24-1.33.93h0Z"/>
        <path class="cls-3" d="M415.15,190.54c-.3.91-.41,2.18-.92,2.18s-.31,1.35-.31,1.35c0,0,1.33,0,1.74.1.41.1.41,1.14.41,1.14,1.53-.1,2.15,1.97,1.94,2.49-.2.52.61.52.61.52,0,0,0,1.66-.21,2.07-.2.42,1.33.73,1.74,1.35.41.62-.21,2.69-.51,2.8-.31.1.82.41.71.93-.1.52.31,0,.41.83.1.83.31,2.59.31,2.59l1.43.1c.21-1.35,2.84-1.4,3.27-1.24,1.74.62,3.06,3.32,3.06,3.94s-1.12.73-1.12.73l.21,3c1.73.52,3.16,3.01,2.96,3.42-.2.41,1.22.31,1.22.31.21-1.87,1.94-1.24,2.04-.62.1.62.41,1.97.41,1.97l.51.93.71.73,1.12-.1.31.62,1.33.21s1.12,1.24,1.23,1.55c.1.31,1.63.21,2.04.31.41.1,1.02.42,1.12.93.1.52.72,1.35.72,1.35,0,0,1.22.31,1.33.73.1.41.61,1.35.61,1.35l1.02.83.1.93,1.12.1.31,1.24,1.84-.1,1.02-.73c1.33-.72,2.25-1.66,2.35-2.07.1-.41.31-1.97,1.33-1.66,1.02.31.31-2.28.31-2.28,0,0-1.43-1.04-1.33-1.56.1-.52-1.43-1.55-1.33-1.97.1-.42-1.33-1.24-1.23-1.66.1-.42-.71-1.56-.71-1.56l-1.53-1.45-.2-.93-1.22-.1-2.45-3.01.1-.83-.71-.1v-1.14l-.71-.42-1.12-.1-2.25-2.49-.2-1.14h-1.12l.2-2.18c.72-.93.31-2.69.31-2.69,0,0-1.43.73-2.14.41-.72-.31.31-1.04.31-1.04v-.83l-.61-.62s-1.74.21-1.84-.1c-.1-.31-.41-1.66-.41-1.66l-.1-1.76-.71-.31-.1-.62-1.12.1v-1.24l-.61-.21-.61-.31-.1-1.24-2.25-.1-.71-1.04-.82-1.24-2.55-.21-.61-.62-1.02-.21-.71-.31-.31.52-1.94.1-.1.62c-1.02.52-5.1.1-5.21.41h0Z"/>
        <path class="cls-3" d="M425.88,187.85c-.16-.82,2.04-1.55,2.55-.93.51.62,1.94.73,2.14,3.84.07,1.11-1.84-1.14-1.84-1.14l-1.53-.52c-.82-.21-1.23-.72-1.33-1.24h0Z"/>
        <polygon class="cls-3" points="395.93 189.11 395.37 188.86 395.78 187.93 396.34 188.18 395.93 189.11"/>
        <path class="cls-3" d="M390.65,178.93l-1.33-1.35v-1.14l-.41-.42-.41-1.45-1.33-.41-1.33.52-1.43.93-1.53.21-.82.93,3.27.31.61,1.04,2.35.21,1.53,1.55c1.33.42,1.64-.21.82-.93h0Z"/>
        <path class="cls-3" d="M390.45,173.86c-.22-.91-1.53,1.14-.2,1.55,1.33.42,2.65,0,2.65,0l.31-.62,5.1.1c.41-.42.61-1.04.61-1.04,0,0,1.23-.42,1.74-.21.51.21.1-1.45-.41-1.24-.51.21-1.53.1-1.53.1h-1.84c-.1-.72-1.74-.42-1.84,0-.1.41-.71.52-.71.52l-2.35.21c-.2.62-1.43,1.04-1.53.62h0Z"/>
        <path class="cls-3" d="M380.34,191.34c1.57.5,2.14.13,2.25-.28.1-.42.2-.52.82-.62.61-.1-.1-1.35-.71-1.24-.61.1-1.23-.21-1.33-.73-.1-.52-1.12-1.86-1.23-.83-.1,1.04-.71,1.04-.61,1.76.1.72.41,1.81.82,1.94h0Z"/>
        <path class="cls-3" d="M368.6,192.51c-.07-.37,2.04-.41,2.35-.1.31.31.1.83,1.02.83s.51.62.41.93c-.1.31-1.12.21-1.23-.1-.1-.31-1.63-.42-1.63-.42,0,0-.82-.62-.92-1.14h0Z"/>
        <polygon class="cls-3" points="402.28 171.59 402.48 171.78 402.69 171.61 403.71 170.78 403.33 170.3 402.52 170.95 402 170.42 401.57 170.86 402.28 171.59"/>
        <polygon class="cls-3" points="394.05 190.31 394.69 191.32 395.2 190.99 394.49 189.85 394.41 189.73 394.26 189.71 393.24 189.6 393.17 190.22 394.05 190.31"/>
        <path class="cls-3" d="M360.64,218.62l.1,1.14h1.53c.61,0-.51-.73-.51-.73,0,0-1.23.1-1.12-.42h0Z"/>
        <polygon class="cls-3" points="362.58 218.65 362.98 218.17 363.59 218.69 363.2 219.17 362.58 218.65"/>
        <polygon class="cls-3" points="343.98 199.26 344.42 198.83 345.03 199.45 344.59 199.89 343.98 199.26"/>
        <polygon class="cls-3" points="372.77 333.21 373.21 333.65 373.72 333.13 374.02 332.83 373.64 332.63 372.62 332.11 372.34 332.67 372.98 332.99 372.77 333.21"/>
        <polygon class="cls-3" points="364.75 325.7 365.46 326.22 365.82 325.72 365.42 325.43 365.73 325.17 365.34 324.69 364.73 325.21 364.42 325.47 364.75 325.7"/>
        <path class="cls-3" d="M441.65,305.51c-.14-.53-.73-.74-.8-.77l-.19.59h0s.12.05.19.1l.13.54c-.05.07-.1.13-.14.18l.45.42c.33-.36.45-.72.36-1.06h0Z"/>
        <polygon class="cls-3" points="442.6 303.56 441.6 303.48 441.68 302.55 442.67 302.71 442.6 303.56"/>
        <path class="cls-3" d="M466.26,295.48c.44-.28.99-.78.92.39-.08,1.17-.54.78-.92,1.17-.38.39-.61-1.17,0-1.55Z"/>
        <path class="cls-3" d="M471.46,291.08l-.02-.14c-.01-.17-.04-.4-.16-.65l-.55.28c.07.14.08.29.09.43.02.18.04.39.21.52.11.08.25.11.41.08l-.12-.6.12.09h0Z"/>
        <path class="cls-3" d="M470.09,291.59c.16.63.38,1.25.39,1.28l.57-.22s-.23-.61-.37-1.21l-.59.15h0Z"/>
        <path class="cls-3" d="M467.86,294.03l-.61-.06c-.05.49.07,1.09.55,1.19l.12-.61h.01s-.09-.29-.07-.52h0Z"/>
        <path class="cls-3" d="M465.18,281.67c-.03-.2-.15-.35-.33-.44-.45-.2-1.22.13-1.59.38l.34.52c.39-.26.9-.39,1.01-.33l-.03-.03.61-.1h0Z"/>
        <path class="cls-3" d="M436.9,248.56c-.41.42-1.33.62-1.33.62l-.31,1.14-.51.41s.1.31,0,1.04c-.1.72-1.02,1.14-1.02,1.14l-.41.52s-2.46.13-2.76,0c-.92-.41-.31-1.66.31-1.55.61.1-.1-1.76-.1-1.76l.82-.1s.1-1.87.41-1.87-.1-.62-.51-.93c-.41-.31-.92-1.35-1.33-1.24-.41.1-2.04,0-2.04,0l-.31.62-1.12.21s.1.8-.1,1.04c-.61.72-2.96,2.28-1.94-.31l.31-.62v-.93l-1.84-.1s-.92-.31-.92-.73-.1-.93-.1-.93l-2.14-2.38-2.55-.31-.21-.52-1.53-.21c-1.84-.93-3.47-.1-3.17,1.45.31,1.56.82,2.18-.2,2.18s-1.23-.83-1.23-.83c0,0-.82-.31-.82.1s-.31,1.24,0,1.66c.31.41-.41,1.04-.72.73-.3-.31-1.12-1.24-.92-1.55.2-.31-1.43-2.28.2-2.59,1.63-.31-.1-1.24.51-1.45l.82-.42h.82l.51-.42-1.33-.21-.82-.1-1.53-.1c-1.53,1.04-1.84,2.28-1.84,2.28-.82,1.55-2.76-.62-2.04-1.45.71-.83-2.25-.1-2.76.31-.51.41-2.04.21-2.04.21-.31.93-1.73-.1-1.33-.72.41-.62.41-1.04.41-1.04l-.51-.1-.61,1.14c-1.43,0-1.84.83-1.53,1.35.31.52-.41-.1-.61.62-.2.73.1.73.72,1.04.61.31-.31.31.1.83.41.52,1.63,0,.92.73-.71.72-2.15.42-2.15.42-.1.93-2.04.72-2.24.41-.21-.31-1.74-2.18-1.74-2.18l-1.94-.1c-.2-1.45.92-.73,1.33-1.87.41-1.14.61-3,.61-3,0,0-1.64-.1-1.74.41-.1.52-1.12.83-1.12.83,0,0-.82.31-.51.73.31.42-.61.62-.61.62,0,0,.16.67-.1.93-.82.83-2.86.1-3.16-.21l-1.23-.52-1.23-.83-1.43.62-.41.42h-1.53l-.1,1.24,2.76.31.2,2.56-1.12-.39h-.71l-.31-.62-.61-.1v2.28l.61.52.51.52,1.02.1.2,1.24,2.55.1.31.52,1.53.1,2.96,3-.2.93-.51.31c.21.73-1.33.31-1.33.31v.62l.71.1.72.41,1.02-1.76c1.12-.73,1.63.31,1.74.93.1.62-.51.52-.51.52v1.45l.61.21c1.02,1.24-.41,1.97-.41,1.97l-.31,1.04c-.31.93-1.43.72-1.43.72l-.41.62-1.23.31,2.42.31c.23-.83.84-1.04,1.15-.62.31.42.31,1.14.31,1.14l.61.1-.1,1.14.61.21v3.32l.71.83c1.23-.52,1.23.31.61.73-.61.41-.2,2.28-.2,2.28l-.51.52v.83l-.61.41v1.14c-1.02-.52-2.25-.31-2.55,0-.92-.62-2.86-.41-2.86.1.61.83-.71,1.04-.71,1.04l-.72.83c.51,1.04-.51,1.14-.51,1.14v1.97l-1.23,1.14.1,2.69c0,.73,1.53.83,1.84.41.31-.41,1.53.83,1.53.83h.92l.21-1.87-.61-.31v-3.01l1.02-1.14c1.23-.41.82,2.7.82,3.01.1,1.14.61,1.04,1.12.83,1.02-.41.2,1.14-.61,1.04-.82-.1-.31,1.04-.31,1.04l.51.21-.92.73-.81.93-1.02-.31-1.22-.1-.41-.73-.72-.1-.1,1.45-.51.62-1.23,1.25c1.63,0-.21,1.14-.61,1.14.92.31-.1,1.24-2.45.52v.72l-.82.1.72.83.82.1-.31,1.76c0,1.35-3.37.41-3.68.1l-.1,1.87-.61.1.1,1.24-.1,1.76,1.12-.21v.73l2.76.1,3.98-4.25,2.35-.52c.2-1.04,1.22.21,1.22.21,1.02-.11,1.23.62,1.23.62l1.33.21c1.12.31.44.42.51.83.1.62.61.41.61.41l.21-1.35.61.1-.61-.73-1.12-.52-1.22-.52c-.82-1.14.2-.93,1.02-.83h1.33s1.53,2.07,1.53,2.59.71.62.71.62l.92-.1.31.72h.92l.31.62h1.84l.1-.93-1.74-.31-.1-1.04-1.22-.31c-.41-1.76.31-2.28.82-1.45l.61.1-.2-1.55.71-.21-.2-2.18-.61-.21v-.73l2.55.11c-.2-1.35.1-1.97.1-1.97h.71l.1.52,3.12.29,2.21-2.53c-.11-.19.22-.31-.02-.56-.31-.31-.72,0-1.23-.31-.51-.31,0-2.07-.1-2.49-.1-.41,1.74-1.04,1.43-.1-.31.93,0,1.35,0,1.35,1.33-1.24,2.45.1,2.35.41-.1.31.71.62,1.22.31.51-.31,1.12.93.92,1.55-.21.62-2.04.52-2.14-.1-.1-.62-.41-.41-.61-.1-.21.31-1.12.52-1.63.21-.1-.06-.15-.12-.18-.17l-2.21,2.53h.14c1.22.74.61,1.67.21,1.88-.41.21-1.12.21-1.12.21l-.2.42-2.66.21-.21,1.04c-1.33-.21-1.84,1.24-1.53,1.97.31.72,0,1.35,0,1.35l1.12.52,1.43-.41c.21-1.04,1.12-1.25,1.94-1.87.82-.62,2.14,1.14,1.73,1.97-.41.83-.41,1.14-.41,1.14l.1.93-1.02.41-.82.42-.1.52h-2.76l-.51.52-1.33.11-.41.62-.92.1s-1.53.73-.92,1.55c.61.83-2.55.73-3.27-.42-.2,1.04-1.33.1-1.33.1l-1.12-.31-.1-1.55c-.2-1.04-2.14-1.04-2.04-.31.1.73-3.68.31-3.68.31l-1.22.59-1.12.65-.1.52-1.84.21-.82.42-.31-.62h-.82l-.82,1.14c-2.14.1-4.19,1.35-3.98,1.87.2.52-.82,1.04-.82,1.04l-.92.31-.61.93-1.23.42-.21,2.18-.61.41v.93l-.72.21v.52l-1.02.1.61,1.55.82.42c1.43.21.82,1.97.82,1.97l.82.1.41,1.14.82,1.66c.31,1.25,1.23.93,1.63.83.41-.1.82,1.24.82,1.24l4.08.1s-.2.42.51.62c.71.21,5.41.42,5.62.1-.21-.93,2.55-1.14,3.68-.31,1.12.83,2.65.31,2.65.31l1.53,1.86,1.02,2.28,1.73.52,1.22.31.41,1.76.92.1.31,1.14c1.12.83-.31,2.59-.31,2.59v2.28l.82.42-.1.83,1.33,1.34,1.53.11,3.88,4.14,3.06.93.51,1.66.82-.1.61-.52,2.45-.1,1.23-1.14,1.33-.21,11.33-9.64-1.02-.62v-2.28c1.84-1.35,1.94-3.73.2-3.94-1.32-.16-.71-1.55.51-1.76l.71-.31v-.93l2.35-2.17v-1.66l-5.1-4.25c-2.25-.83,0-5.8,1.53-5.7,1.53.1-.1-7.67-.1-7.67l-.82-.41.21-2.49h-1.12l-1.84,2.38-.51,1.66c-.2,2.18-6.54,1.76-6.84,1.45-.31-.31-2.45-1.24-2.45-1.24,0,0-1.63-1.35-1.94-.93s-1.73-.52-1.73-.21-1.33-.72-1.33-.72l-2.04-.73,1.53-.31-.31-1.24,2.65,1.35c.31.41,1.63.31,1.63.31l.41.52s.82-.11,1.33.52c.51.62,3.16.1,3.16.1l.71.62,1.12.42,3.17.1.1-1.97.61-.62-.1-1.24.71-.62v-1.04l.61-.21.1-2.28.51-.1v-4.97l-1.53-1.45c-.1.52-1.73.52-1.73.52,0,0-.41.72-.71.72s.41.93.2,1.55c-.2.62-1.02.62-1.02.62l-1.53.42-.41.52h-1.63l-.2-1.35,1.84-.52,1.02-.52.51-1.04c.1-1.03,1.33-.93,1.33-.93,0,0,2.35-1.97,2.45-2.9.1-.93.92-3.52,2.35-3.52h2.66c1.02-.42.71-1.76.71-1.76l1.33-.21.2.73s1.84.21,2.04-.1c.21-.31.61-1.04,1.12-.73.51.31,2.14-.73,2.14-.73.1-.73,2.65-.41,2.65-.41l.31-.93s-1.74-2.38-2.04-2.38-1.94-1.45-2.15-.93c-1.63-.41-1.53-2.69-1.53-2.69l-.61-1.45c0-.83-1.53-2.59-1.84-2.38-1.53-1.14-.41-2.49,0-2.59.41-.1,1.43-1.55,1.43-1.55l.51-1.45,1.74-.52.2-1.35-.92-.1s1.02-1.87,1.53-1.87,3.88,0,4.18-.21c.31-.21.92-1.86.92-2.18s.82-.42,1.12-.52c.31-.1,1.02-.93,1.23-1.35.2-.42-.51-3.01-.92-2.59h0Z"/>
        <path class="cls-3" d="M380.34,285.92c.15-.15.31.47.61.39.3-.08.46.54.15.54s-.31.39-.31.54,0,.54-.23.78c-.23.23-.46.08-.77-.08-.31-.16-.46-.16-.84-.16s-.08.62-.08.62c0,0-1.61-.08-1.3-.31.31-.23.61-.31.38-.47-.23-.16,0-.31,0-.62s.77-.16.53-.39c-.23-.23,0-1.13.38-.62l.23-.55c-.23-.23-.08-.31-.54-.46-.46-.16-.08-1.09-.08-1.09l.08-.62c.15-.78,1.68-.85,1.76-.16.08.7,0,1.17,0,1.17l.46.15s-.08.47-.46.47,0,.23-.23.46l.23.39h0Z"/>
        <path class="cls-3" d="M375.29,286.7c.23-.47.77-2.49,1.38-1.87.61.62.99,0,.99,0,0,0,.31.31.15.93-.15.62-.31,1.24-.69,1.32-.38.08-.69.31-1.15.39-.46.08-.69-.78-.69-.78h0Z"/>
      </g>
      <g>
        <path class="cls-2" d="M256.98,375.43c1.08-5.38.98-10.94-.26-16.33l17.41-9.7-4.18-9.34-18.6,6.42c-.75-1.16-1.57-2.29-2.47-3.37-2.79-3.39-6.05-6.13-9.58-8.32l5.31-18.71-9.56-3.65-8.43,17.32c-1.89-.38-3.8-.62-5.73-.71-.63-.03-1.26-.05-1.89-.05-3.18,0-6.35.38-9.47,1.16l-9.34-16.76-9.35,4.17,6.26,18.13c-.99.67-1.96,1.38-2.9,2.15-3.63,2.99-6.53,6.52-8.77,10.34l-18.56-5.28-3.66,9.56,17.48,8.51c-.99,5.54-.76,11.26.7,16.77l-17.21,9.6,4.18,9.34,18.84-6.5c.56.79,1.11,1.58,1.74,2.33,2.97,3.61,6.48,6.49,10.27,8.73l-5.52,19.42,9.56,3.65,8.9-18.28c2.22.39,4.46.59,6.7.59,3.12,0,6.25-.37,9.31-1.12l9.96,17.86,9.34-4.18-6.66-19.32c.95-.64,1.9-1.33,2.8-2.08,3.36-2.77,6.1-6,8.28-9.51l14.97,4.25,4.59,1.3,3.65-9.56-18.12-8.83ZM234.62,386.86c-4.6,3.79-10.17,5.64-15.7,5.64-7.12,0-14.18-3.06-19.06-8.99-8.68-10.53-7.19-26.09,3.35-34.77,4.6-3.79,10.16-5.64,15.69-5.64,3.35,0,6.68.68,9.78,2.01,3.5,1.5,6.7,3.84,9.29,6.97,3.81,4.62,5.66,10.22,5.64,15.78-.02,7.09-3.09,14.13-8.99,18.99Z"/>
        <path class="cls-1" d="M243.6,367.87c-.02,7.09-3.09,14.13-8.99,18.99-4.6,3.79-10.17,5.64-15.7,5.64-7.12,0-14.18-3.06-19.06-8.99-8.68-10.53-7.19-26.09,3.35-34.77,4.6-3.79,10.16-5.64,15.69-5.64,3.35,0,6.68.68,9.78,2.01,3.5,1.5,6.7,3.84,9.29,6.97,3.81,4.62,5.66,10.22,5.64,15.78Z"/>
        <path class="cls-1" d="M284.43,380.57l-2.42,6.33-3.65,9.56-1.56,4.09c-1.03-.77-2.05-1.55-3.06-2.35-2.34-1.83-4.63-3.73-6.87-5.69l4.59,1.3,3.65-9.56-18.12-8.83c1.08-5.38.98-10.94-.26-16.33l17.41-9.7-4.18-9.34-18.6,6.42c-.75-1.16-1.57-2.29-2.47-3.37-2.79-3.39-6.05-6.13-9.58-8.32l5.31-18.71-9.56-3.65-8.43,17.32c-1.89-.38-3.8-.62-5.73-.71-.52-1.24-1.03-2.48-1.52-3.74-.49-1.22-.95-2.45-1.41-3.69.34-.02.69-.02,1.03-.02,1.1,0,2.21.04,3.31.11l6.09-12.52,2.97-6.09,6.32,2.42,9.56,3.65,6.33,2.42-1.86,6.52-3.88,13.66c2.25,1.79,4.32,3.79,6.18,5.96l13.52-4.66,6.4-2.21,2.76,6.18,4.18,9.34,2.77,6.18-5.92,3.3-12.86,7.17c.29,2.7.34,5.4.15,8.1l13.33,6.49,6.09,2.97Z"/>
        <path class="cls-1" d="M276.79,400.54l-.86,2.23-6.51-1.85-14.53-4.12c-1.64,2.04-3.43,3.92-5.37,5.63l4.94,14.31,2.21,6.4-6.18,2.76-9.34,4.18-6.18,2.76-3.3-5.91-7.39-13.26c-1.8.21-3.61.32-5.42.32-.77,0-1.56-.02-2.34-.06l-6.62,13.59-2.97,6.09-6.33-2.42-9.56-3.65-6.33-2.42,1.86-6.52,4.06-14.27c-2.16-1.66-4.16-3.5-5.96-5.48l-13.9,4.79-6.4,2.22-2.76-6.18-4.18-9.34-2.77-6.18,5.92-3.29,12.52-6.98c-.38-2.84-.5-5.7-.34-8.56l-12.78-6.22-6.09-2.97,2.42-6.32,3.66-9.56,2.41-6.32,6.52,1.85,13.41,3.81c1.81-2.37,3.85-4.55,6.07-6.51l-4.52-13.11-2.21-6.4,6.18-2.76,9.34-4.18,6.18-2.77,3.3,5.92,6.76,12.14c1.52-.18,3.03-.29,4.55-.32.46,1.24.92,2.47,1.41,3.69.49,1.25.99,2.5,1.52,3.74-.63-.03-1.26-.05-1.89-.05-3.18,0-6.35.38-9.47,1.16l-9.34-16.76-9.35,4.17,6.26,18.13c-.99.67-1.96,1.38-2.9,2.15-3.63,2.99-6.53,6.52-8.77,10.34l-18.56-5.28-3.66,9.56,17.48,8.51c-.99,5.54-.76,11.26.7,16.77l-17.21,9.6,4.18,9.34,18.84-6.5c.56.79,1.11,1.58,1.74,2.33,2.97,3.61,6.48,6.49,10.27,8.73l-5.52,19.42,9.56,3.65,8.9-18.28c2.22.39,4.46.59,6.7.59,3.12,0,6.25-.37,9.31-1.12l9.96,17.86,9.34-4.18-6.66-19.32c.95-.64,1.9-1.33,2.8-2.08,3.36-2.77,6.1-6,8.28-9.51l14.97,4.25c2.24,1.96,4.53,3.85,6.87,5.69,1.01.8,2.04,1.58,3.06,2.35Z"/>
      </g>
    </g>
  </g>
</svg>